# xmcd
#
# Track frame offsets:
#	150
#	12180
#	29267
#	50478
#	67892
#	86024
#	100366
#	120219
#	138375
#	157984
#	177541
#	193451
#	212341
#	228816
#	244546
#	266034
#	283348
#	302560
#	323219
#	341688
#
# Disc length: 4795
#
# Revision: 1
# Processed by: cddbd v1.5.1PL0 Copyright (c) Steve Scherf et al.
# Submitted via: dBpowerAMP V4.0
# Normalized: r0:TDELIM( - )
#
DISCID=1812b914
DTITLE=Various Artists (Sun Street) - The Best Hits Of 90.s vol 3
DYEAR=2004
DGENRE=Disco
TTITLE0=Manu Chao - Bongo Bong
TTITLE1=Paradiso - Bailano
TTITLE2=Eifel 65 - Blue
TTITLE3=Cher - Believe
TTITLE4=Dr. Alban - Reggae Gone Ragga
TTITLE5=Rednex - Cotton Eye Joe
TTITLE6=Ice Mc - Russian Roulette
TTITLE7=Loft - Summer Summer
TTITLE8=Cappella - U Got 2 Let The Music
TTITLE9=LA Bouche - Where Do You Go
TTITLE10=Army Of Lovers - La Plage de Saint Tropez
TTITLE11=Masterboy - Give Me Your Love
TTITLE12=Technotronic - This Beat Is Tehnotronic
TTITLE13=VAN - Ice Got You Love
TTITLE14=Michael Jackson - They Don.t Care About Us
TTITLE15=INXS - Suicide Blonde
TTITLE16=Haddaway - Rock My Heart
TTITLE17=Camouflage - Love Is A Shield
TTITLE18=Captain Jack - Captain Jack
TTITLE19=Mike and The Mechanics - Another Cup Of Coffeee
EXTD=
EXTT0=
EXTT1=
EXTT2=
EXTT3=
EXTT4=
EXTT5=
EXTT6=
EXTT7=
EXTT8=
EXTT9=
EXTT10=
EXTT11=
EXTT12=
EXTT13=
EXTT14=
EXTT15=
EXTT16=
EXTT17=
EXTT18=
EXTT19=
PLAYORDER=
